<svg width="32" height="32" viewBox="0 0 32 32" fill="none" xmlns="http://www.w3.org/2000/svg">
<g clip-path="url(#clip0_136_89)">
<path d="M24.745 16.0415C28.5824 13.6745 31.1893 9.49302 31.3665 4.69632C31.377 4.40435 31.1371 4.15409 30.8451 4.15409H28.0297C27.8003 4.15409 27.6126 3.96639 27.6126 3.73698V0.838114C27.6126 0.546141 27.3728 0.306306 27.0704 0.316734C22.2841 0.504431 18.1026 3.1009 15.7251 6.93825C13.3581 3.11133 9.17661 0.504431 4.37992 0.316734C4.08794 0.306306 3.83768 0.546141 3.83768 0.838114V3.65356C3.83768 3.88297 3.64998 4.07067 3.42058 4.07067H0.521707C0.229735 4.07067 -0.0100999 4.3105 0.000327676 4.6129C0.188024 9.39917 2.78449 13.5806 6.62185 15.9581C2.79492 18.3356 0.188024 22.5066 0.000327676 27.3033C-0.0100999 27.5953 0.229735 27.8456 0.521707 27.8456H3.33716C3.56656 27.8456 3.75426 28.0333 3.75426 28.2627V31.172C3.75426 31.464 3.9941 31.7038 4.2965 31.6934C9.08276 31.5057 13.2642 28.9092 15.6417 25.0718C18.0192 28.9092 22.2007 31.5161 26.9869 31.6934C27.2789 31.7038 27.5292 31.464 27.5292 31.172V28.3565C27.5292 28.1271 27.7169 27.9394 27.9463 27.9394H30.8556C31.1475 27.9394 31.3874 27.6996 31.377 27.3972C31.1893 22.6005 28.5824 18.419 24.745 16.0415ZM15.6834 14.2793C16.6323 14.2793 17.404 15.0509 17.404 15.9998C17.404 16.9487 16.6323 17.7204 15.6834 17.7204C14.7345 17.7204 13.9629 16.9487 13.9629 15.9998C13.9629 15.0509 14.7345 14.2793 15.6834 14.2793ZM27.1746 4.96744C26.7888 9.70157 23.0245 13.4972 18.3008 13.9247C18.0505 13.9456 17.8315 13.737 17.8524 13.4764C18.2382 8.74223 22.0025 4.94658 26.7262 4.51905C26.9765 4.4982 27.1955 4.70675 27.1746 4.96744ZM13.1599 13.8309C8.42582 13.4451 4.63018 9.68071 4.20265 4.95701C4.18179 4.70675 4.39034 4.48777 4.65103 4.50863C9.38516 4.89445 13.1808 8.65881 13.6083 13.3825C13.6292 13.6432 13.4102 13.8622 13.1599 13.8309ZM4.19222 27.0322C4.57804 22.2981 8.3424 18.5025 13.0661 18.0749C13.3164 18.0541 13.5353 18.2626 13.5145 18.5233C13.1287 23.2574 9.36431 27.0531 4.64061 27.4806C4.39034 27.5015 4.17136 27.2929 4.19222 27.0322ZM18.2173 18.1688C22.9515 18.5546 26.7471 22.319 27.1746 27.0427C27.1955 27.2929 26.9869 27.5119 26.7262 27.491C21.9921 27.1052 18.1965 23.3409 17.7689 18.6172C17.7377 18.3565 17.9566 18.1479 18.2173 18.1688Z" fill="white"/>
</g>
<defs>
<clipPath id="clip0_136_89">
<rect width="31.3662" height="31.3662" fill="white" transform="translate(0 0.317383)"/>
</clipPath>
</defs>
</svg>
